<svg data-v-423bf9ae="" xmlns="http://www.w3.org/2000/svg" viewBox="0 0 360.1336503374074 60" class="font"><!----><!----><!----><g data-v-423bf9ae="" id="72dfe616-83d1-4536-8efa-f1d0584fbdd3" fill="white" transform="matrix(4.454342896107062,0,0,4.454342896107062,-2.628065693293962,-14.342984014485936)"><path d="M0.59 8.46C0.59 11.62 2.16 13.51 5.38 13.51C8.60 13.51 10.16 11.62 10.16 8.46C10.16 5.29 8.60 3.40 5.38 3.40C2.16 3.40 0.59 5.29 0.59 8.46ZM3.07 8.46C3.07 6.76 3.32 4.05 5.38 4.05C7.43 4.05 7.69 6.76 7.69 8.46C7.69 10.15 7.43 12.87 5.38 12.87C3.35 12.87 3.07 10.15 3.07 8.46ZM10.88 15.99L10.88 16.52L15.06 16.52L15.06 15.99C14.04 15.95 13.90 15.89 13.90 15.30L13.90 13.30C14.14 13.40 14.63 13.47 15.01 13.47C17.08 13.47 18.75 12.74 18.75 9.67C18.75 7.35 17.53 6.27 16.21 6.27C15.23 6.27 14.59 6.72 13.90 7.24L13.65 6.27L10.96 6.68L10.96 7.18L11.45 7.25C11.68 7.28 11.79 7.41 11.79 7.97L11.79 15.30C11.79 15.89 11.68 15.95 10.88 15.99ZM13.90 11.17L13.90 8.96C13.90 8.67 13.93 8.39 14 8.19C14.18 7.67 14.53 7.35 15.12 7.35C15.78 7.35 16.52 7.71 16.52 9.98C16.52 11.72 16.14 12.82 15.06 12.82C14.45 12.82 14.08 12.50 13.96 11.89C13.92 11.68 13.90 11.44 13.90 11.17ZM19.67 7.14L20.48 7.14L20.48 11.66C20.48 12.94 21.43 13.47 22.22 13.47C22.79 13.47 23.66 13.20 24.44 12.71L24.29 12.28C24.09 12.36 23.80 12.42 23.49 12.42C22.96 12.42 22.60 12.03 22.60 11.13L22.60 7.14L24.05 7.14L24.05 6.44L22.60 6.44L22.60 4.68L21.78 4.68L20.55 6.44L19.67 6.44ZM25.38 4.44C25.38 5.11 25.87 5.67 26.66 5.67C27.43 5.67 27.94 5.11 27.94 4.44C27.94 3.78 27.45 3.22 26.66 3.22C25.87 3.22 25.38 3.78 25.38 4.44ZM24.77 13.30L28.70 13.30L28.70 12.77C27.90 12.73 27.79 12.67 27.79 12.08L27.79 6.36L27.69 6.27L24.85 6.68L24.85 7.18L25.34 7.25C25.56 7.28 25.68 7.41 25.68 7.97L25.68 12.08C25.68 12.67 25.56 12.73 24.77 12.77ZM29.41 10.14L29.62 12.64C30.34 13.30 31.72 13.51 32.65 13.51C35.45 13.48 36.29 11.97 36.29 10.51C36.29 8.67 34.92 7.95 33.64 7.42C32.72 7.04 31.56 6.54 31.56 5.47C31.56 4.61 32.17 4.05 33.01 4.05C33.91 4.05 34.75 4.68 35.14 6.31L35.64 6.31L35.64 4.02C34.92 3.57 33.88 3.40 33.03 3.40C30.67 3.40 29.54 4.62 29.54 6.27C29.54 8.01 31.09 8.76 32.33 9.28C33.60 9.81 34.19 10.44 34.19 11.34C34.17 12.38 33.50 12.87 32.59 12.87C31.53 12.87 30.46 11.89 29.93 10.14ZM36.02 6.97L36.48 7.04C36.69 7.08 36.86 7.24 37.02 7.62C37.83 9.56 38.67 11.63 39.41 13.57C39.52 13.85 39.56 14.21 39.49 14.49C39.41 14.81 39.28 15.18 38.95 15.18C38.79 15.18 38.61 15.11 38.44 14.97C38.18 14.77 38.05 14.67 37.81 14.67C37.37 14.67 36.92 15.27 36.92 15.81C36.92 16.35 37.52 16.69 38.05 16.69C39.02 16.69 39.66 16.16 40.42 14.14C41.23 11.97 42.07 9.91 42.90 7.91C43.15 7.31 43.30 7.04 43.69 7.00L43.99 6.97L43.99 6.44L41.17 6.44L41.17 6.97L41.75 7.06C41.94 7.08 42.03 7.21 41.96 7.48C41.57 8.81 41.12 10.11 40.68 11.42L40.66 11.42C40.19 10.14 39.68 8.83 39.24 7.52C39.14 7.24 39.19 7.08 39.41 7.06L39.94 6.97L39.94 6.44L36.02 6.44ZM44.06 10.71L44.23 12.80C44.76 13.29 45.81 13.47 46.59 13.47C48.30 13.47 49.48 12.70 49.48 11.19C49.48 9.98 48.72 9.41 47.43 8.92C46.62 8.62 46.02 8.29 46.02 7.73C46.02 7.29 46.33 6.92 46.90 6.92C47.61 6.92 48.22 7.56 48.48 8.62L49 8.62L49 6.76C48.43 6.41 47.63 6.27 46.90 6.27C45.19 6.27 44.13 7.07 44.13 8.48C44.13 9.51 44.95 10.18 46.19 10.64C46.90 10.89 47.59 11.30 47.59 11.97C47.59 12.50 47.24 12.82 46.62 12.82C45.70 12.82 44.95 11.86 44.59 10.71ZM50.22 7.14L51.03 7.14L51.03 11.66C51.03 12.94 51.98 13.47 52.77 13.47C53.34 13.47 54.21 13.20 54.99 12.71L54.84 12.28C54.64 12.36 54.35 12.42 54.04 12.42C53.51 12.42 53.14 12.03 53.14 11.13L53.14 7.14L54.60 7.14L54.60 6.44L53.14 6.44L53.14 4.68L52.33 4.68L51.10 6.44L50.22 6.44ZM55.43 9.87C55.43 11.77 56.25 13.47 58.86 13.47C60.52 13.47 61.43 12.66 61.91 11.42L61.40 11.14C60.98 11.94 60.38 12.39 59.53 12.39C58.13 12.39 57.65 11.24 57.65 9.77L61.26 9.77C61.77 9.77 62.02 9.63 62.02 9.18C62.02 8.04 61.59 6.27 58.88 6.27C56.36 6.27 55.43 7.91 55.43 9.87ZM57.65 9.10C57.65 8.09 57.92 6.92 58.83 6.92C59.68 6.92 59.82 7.98 59.82 8.64C59.82 9.02 59.71 9.10 59.39 9.10ZM62.58 13.30L66.35 13.30L66.35 12.77L66.05 12.74C65.76 12.71 65.60 12.64 65.60 12.18L65.60 8.96C65.60 7.74 66.28 7.35 66.91 7.35C67.59 7.35 67.91 7.92 67.91 8.69L67.91 12.18C67.91 12.64 67.76 12.71 67.47 12.74L67.17 12.77L67.17 13.30L70.77 13.30L70.77 12.77L70.48 12.74C70.18 12.71 70.03 12.64 70.03 12.18L70.03 8.96C70.03 7.74 70.66 7.35 71.29 7.35C71.97 7.35 72.34 7.92 72.34 8.69L72.34 12.18C72.34 12.64 72.18 12.71 71.89 12.74L71.60 12.77L71.60 13.30L75.36 13.30L75.36 12.77C74.56 12.73 74.45 12.67 74.45 12.08L74.45 8.44C74.45 7.14 73.75 6.27 72.27 6.27C71.30 6.27 70.43 6.94 69.83 7.32C69.55 6.82 68.98 6.27 67.93 6.27C67.02 6.27 66.37 6.75 65.60 7.24L65.42 6.27L62.66 6.68L62.66 7.18L63.15 7.25C63.38 7.28 63.49 7.41 63.49 7.97L63.49 12.08C63.49 12.67 63.38 12.73 62.58 12.77ZM76.02 10.71L76.19 12.80C76.72 13.29 77.77 13.47 78.55 13.47C80.26 13.47 81.44 12.70 81.44 11.19C81.44 9.98 80.68 9.41 79.39 8.92C78.58 8.62 77.98 8.29 77.98 7.73C77.98 7.29 78.29 6.92 78.86 6.92C79.58 6.92 80.18 7.56 80.44 8.62L80.96 8.62L80.96 6.76C80.39 6.41 79.59 6.27 78.86 6.27C77.15 6.27 76.09 7.07 76.09 8.48C76.09 9.51 76.92 10.18 78.15 10.64C78.86 10.89 79.55 11.30 79.55 11.97C79.55 12.50 79.20 12.82 78.58 12.82C77.66 12.82 76.92 11.86 76.55 10.71Z"></path></g><!----><!----></svg>